<?xml version="1.0" encoding="UTF-8" standalone="no"?>
<!-- Created with Inkscape (http://www.inkscape.org/) -->

<svg
   width="120"
   height="120"
   viewBox="0 0 120 120"
   version="1.1"
   id="svg5"
   inkscape:version="1.2.2 (b0a8486541, 2022-12-01)"
   sodipodi:docname="sysfs.svg"
   xmlns:inkscape="http://www.inkscape.org/namespaces/inkscape"
   xmlns:sodipodi="http://sodipodi.sourceforge.net/DTD/sodipodi-0.dtd"
   xmlns="http://www.w3.org/2000/svg"
   xmlns:svg="http://www.w3.org/2000/svg">
  <sodipodi:namedview
     id="namedview7"
     pagecolor="#505050"
     bordercolor="#eeeeee"
     borderopacity="1"
     inkscape:showpageshadow="0"
     inkscape:pageopacity="0"
     inkscape:pagecheckerboard="0"
     inkscape:deskcolor="#505050"
     inkscape:document-units="px"
     showgrid="false"
     showguides="true"
     inkscape:zoom="12.380368"
     inkscape:cx="41.234639"
     inkscape:cy="34.005451"
     inkscape:window-width="1920"
     inkscape:window-height="1019"
     inkscape:window-x="0"
     inkscape:window-y="0"
     inkscape:window-maximized="1"
     inkscape:current-layer="layer1" />
  <defs
     id="defs2" />
  <g
     inkscape:label="Layer 1"
     inkscape:groupmode="layer"
     id="layer1">
    <path
       id="text236-3"
       style="font-style:normal;font-weight:normal;font-size:53.3333px;line-height:1.25;font-family:sans-serif;fill:#ffffff;fill-opacity:1;stroke:none"
       d="m 27.542969,3.3730469 c -3.73269,0.080754 -7.773154,1.0705236 -10.282689,4.0319665 -2.498493,2.9373646 -2.991554,7.0859006 -2.409215,10.7810496 0.392562,2.506747 1.88297,4.731374 3.897847,6.23871 3.554944,2.812473 7.861758,4.401944 11.701096,6.752185 1.562719,1.003772 2.965964,2.696553 2.699451,4.669126 -0.122053,2.523025 -2.467453,4.55908 -4.95258,4.559057 -2.334249,0.100655 -4.567445,-0.780193 -6.673441,-1.688344 -0.231673,-2.253916 -0.462116,-4.507959 -0.695313,-6.761719 -2.344401,0 -4.688802,0 -7.033203,0 0,4.227214 0,8.454427 0,12.681641 5.241797,2.205233 10.990744,3.796297 16.714844,2.970703 4.464192,-0.600436 8.730237,-3.366271 10.56724,-7.559855 1.353237,-3.099819 1.58334,-6.713733 0.600728,-9.951864 -0.784018,-2.594722 -3.018127,-4.33682 -5.207031,-5.738281 -3.790042,-2.45354 -8.016727,-4.169357 -11.729504,-6.744765 -1.317259,-0.838107 -1.171928,-2.627671 -1.014391,-3.976681 0.115684,-1.335912 1.018963,-2.621414 2.391573,-2.869679 2.11015,-0.507356 4.33845,4.44e-4 6.231228,0.989562 0.249375,1.937497 0.498883,3.874977 0.748047,5.8125 2.320964,0 4.641927,0 6.962891,0 0,-3.904948 0,-7.8098955 0,-11.7148434 C 36.385781,4.4255739 32.511212,3.3739564 28.54331,3.3664433 c -0.333358,-0.01284 -0.666921,0.00458 -1.000341,0.0066 z M 91.064453,13.943359 c -3.585817,0.08729 -7.505769,0.791741 -10.091797,3.492188 -2.370217,2.507157 -2.945039,6.344879 -2.031918,9.593256 0.82314,2.883264 3.397099,4.837008 6.071055,5.91332 3.404981,1.427586 7.113005,1.912821 10.576797,3.159007 0.790305,0.263952 1.64417,0.84548 1.511019,1.797308 0.116064,1.023894 -0.653393,1.893467 -1.631579,2.081192 -3.154338,0.797463 -6.424582,-0.103118 -9.417249,-1.128068 -0.241496,-1.769536 -0.482865,-3.53909 -0.724609,-5.308593 -2.316406,0 -4.632813,0 -6.949219,0 0,3.707682 0,7.415364 0,11.123047 4.501501,1.83326 9.335299,2.95878 14.214813,2.846038 4.030375,-0.04386 8.368314,-1.085231 11.173794,-4.172337 2.52398,-2.749313 3.13169,-7.034999 1.66217,-10.43542 -1.2937,-2.884725 -4.34249,-4.376048 -7.200352,-5.2886 -2.891816,-0.939661 -5.91878,-1.434885 -8.774429,-2.483544 -0.860849,-0.39213 -2.195731,-0.936778 -2.00373,-2.104809 0.162504,-1.330643 1.738685,-1.633059 2.833451,-1.780707 2.111357,-0.204186 4.287753,-0.02554 6.291549,0.696722 0.244061,1.770845 0.487871,3.541724 0.732422,5.3125 2.315104,0 4.630209,0 6.945309,0 0,-3.608073 0,-7.216145 0,-10.824218 -3.75853,-1.597309 -7.818458,-2.473343 -11.905665,-2.48729 -0.427323,-0.01582 -0.854429,-0.0088 -1.281832,-9.92e-4 z m -47.765625,2.640625 c 0,1.74349 0,3.48698 0,5.230469 0.858073,0 1.716146,0 2.574219,0 3.341947,8.3502 6.68265,16.700899 10.025391,25.050781 0.24946,0.249053 -0.385554,1.097778 -0.478887,1.579244 -0.325854,0.449809 -0.262106,1.474253 -0.889473,1.47935 -1.833594,0 -3.667187,0 -5.500781,0 0,2.409505 0,4.819011 0,7.228516 5.490885,0 10.981771,0 16.472656,0 0,-2.409505 0,-4.819011 0,-7.228516 -0.968099,0 -1.936198,0 -2.904297,0 3.736176,-9.374079 7.495618,-18.739229 11.242188,-28.109375 0.858073,0 1.716146,0 2.574218,0 10e-7,-2.410156 0,-4.820312 0,-7.230469 -4.51888,0 -9.03776,0 -13.55664,0 0,2.410157 0,4.820313 0,7.230469 1.070963,0 2.141927,0 3.21289,0 -1.723958,4.311849 -3.447916,8.623698 -5.171874,12.935547 -1.723959,-4.311849 -3.447917,-8.623698 -5.171876,-12.935547 1.070964,0 2.141928,0 3.212891,0 0,-2.410156 0,-4.820312 0,-7.230469 -5.213542,0 -10.427083,0 -15.640625,0 0,0.666667 0,1.333334 0,2 z m 32.253906,55.595704 c -3.733311,0.08037 -7.774648,1.070034 -10.284642,4.031966 -2.498493,2.937365 -2.991553,7.0859 -2.409215,10.781049 0.392241,2.507294 1.882031,4.733544 3.897848,6.240664 3.555017,2.811629 7.861632,4.401395 11.701095,6.750232 1.56377,1.002851 2.963298,2.697221 2.697498,4.669121 -0.118075,2.53854 -2.493408,4.57856 -4.991729,4.5615 -2.320464,0.0873 -4.536983,-0.78902 -6.632339,-1.68883 -0.231673,-2.25392 -0.462115,-4.50796 -0.695312,-6.76172 -2.344402,0 -4.688803,0 -7.033204,0 0,4.22656 0,8.45313 0,12.67969 5.229464,2.20005 10.962434,3.78905 16.673828,2.97656 4.44655,-0.58625 8.697319,-3.31564 10.567926,-7.4703 1.393485,-3.13612 1.638037,-6.80823 0.625434,-10.090245 -0.824698,-2.664704 -3.165124,-4.41111 -5.420011,-5.837762 -3.730342,-2.377499 -7.861234,-4.078052 -11.500899,-6.600362 -1.316509,-0.838669 -1.171872,-2.629113 -1.014392,-3.978634 0.11587,-1.332452 1.013591,-2.615282 2.38187,-2.867483 2.113523,-0.51264 4.343815,-5.8e-4 6.240932,0.987366 0.248568,1.938168 0.496417,3.876428 0.746094,5.814453 2.320963,0 4.641927,0 6.96289,0 0,-3.905599 0,-7.811198 0,-11.716797 -3.674232,-1.427385 -7.547957,-2.479928 -11.515283,-2.487072 -0.332708,-0.01284 -0.665619,0.0046 -0.998389,0.0066 z m -46.796875,2.951171 c 0,1.734375 0,3.46875 0,5.203125 1.927084,0 3.854167,0 5.78125,0 0,9.378907 0,18.757813 0,28.136716 -1.927083,0 -3.854166,0 -5.78125,0 0,2.40039 0,4.80078 0,7.20118 7.331381,0 14.662761,0 21.994141,0 0,-2.4004 0,-4.80079 0,-7.20118 -2.361328,0 -4.722656,0 -7.083984,0 0,-3.27539 0,-6.55078 0,-9.826169 1.253906,0 2.507812,0 3.761718,0 0,1.075521 0,2.151039 0,3.226559 2.401042,0 4.802084,0 7.203125,0 0,-4.554033 0,-9.108069 0,-13.662106 -2.401041,0 -4.802083,0 -7.203125,0 0,1.076823 0,2.153646 0,3.230469 -1.253906,0 -2.507812,0 -3.761718,0 0,-3.701823 0,-7.403646 0,-11.105469 2.859375,0 5.71875,0 8.578125,0 0,2.145183 0,4.290365 0,6.435547 2.401041,0 4.802083,0 7.203125,0 0,-4.546224 0,-9.092448 0,-13.638672 -10.230469,0 -20.460938,0 -30.691407,0 0,0.666667 0,1.333334 0,2 z" />
    <path
       id="text236"
       style="font-style:normal;font-weight:normal;font-size:53.3333px;line-height:1.25;font-family:sans-serif;fill:#000000;fill-opacity:1;stroke:none"
       d="m 28.294922,5.362304 c -7.777765,0 -11.667969,3.419499 -11.667969,10.259766 0,2.378468 0.572919,4.261504 1.71875,5.65039 1.163193,1.44097 3.386724,3.013458 6.667969,4.714844 l 4.947266,2.578125 c 3.472216,1.805553 5.208984,4.071185 5.208984,6.796875 0,1.979164 -0.687068,3.645836 -2.058594,5 -1.371525,1.371526 -3.158423,2.056641 -5.363281,2.056641 -2.152774,0 -4.853087,-0.789282 -8.099609,-2.369141 l -0.625,-6.09375 h -3.228516 v 9.322266 c 4.201382,1.701386 8.081603,2.552734 11.640625,2.552734 3.888883,0 7.00391,-1.067711 9.347656,-3.203125 2.326386,-2.135413 3.490235,-4.973964 3.490235,-8.515625 0,-2.309024 -0.528865,-4.105905 -1.587891,-5.390625 -1.041665,-1.267359 -3.255214,-2.813805 -6.640625,-4.636719 l -4.402344,-2.36914 c -2.187496,-1.180554 -3.705947,-2.136069 -4.55664,-2.865234 -0.972221,-0.833333 -1.458985,-2.125437 -1.458985,-3.878907 0,-4.270826 2.093323,-6.40625 6.277344,-6.40625 2.031247,0 4.130646,0.641061 6.300781,1.925781 l 0.652344,5.078126 h 3.203125 V 7.262695 C 34.727219,5.995336 31.472,5.362304 28.294922,5.362304 Z M 91.783203,15.93457 c -7.499988,0 -11.25,2.752396 -11.25,8.255859 0,2.048608 0.669056,3.689238 2.00586,4.921875 1.354164,1.267359 3.515629,2.291017 6.484375,3.072266 l 5.3125,1.40625 c 1.78819,0.468749 3.02821,1.023655 3.72266,1.666016 0.69444,0.624999 1.04296,1.510418 1.04296,2.65625 0,2.916662 -2.06728,4.375 -6.199214,4.375 -2.378468,0 -5.269103,-0.659074 -8.671875,-1.978516 l -0.650391,-4.765625 h -3.203125 v 7.734375 c 3.871522,1.493053 7.769755,2.240234 11.69336,2.240234 3.819435,0 6.796225,-0.791235 8.931637,-2.371094 2.13542,-1.562497 3.20313,-3.70595 3.20313,-6.43164 0,-1.996525 -0.625,-3.577042 -1.875,-4.740234 -1.26736,-1.180554 -3.358732,-2.152128 -6.275392,-2.916016 l -5.261719,-1.38086 c -3.576383,-0.937498 -5.363281,-2.377824 -5.363281,-4.322265 0,-1.475692 0.625002,-2.569446 1.875,-3.28125 1.059026,-0.607638 2.543406,-0.912109 4.453125,-0.912109 2.534718,0 4.748265,0.460721 6.640625,1.380859 l 0.65039,4.712891 h 3.203122 V 17.80957 c -3.142352,-1.249998 -6.631947,-1.875 -10.468747,-1.875 z m -46.484375,0.65039 v 3.230469 h 1.927735 l 10.02539,25.050781 h 1.746094 l -2.8125,7.058594 h -5.15625 v 3.228516 h 12.472656 v -3.228516 h -3.853515 l 2.8125,-7.058594 10.02539,-25.050781 h 1.927735 V 16.58496 h -9.556641 v 3.230469 h 4.166016 l -8.09961,20.259766 h -0.05078 l -8.09961,-20.259766 h 4.166015 V 16.58496 Z m 31.003907,57.583985 c -7.777766,0 -11.667969,3.419503 -11.667969,10.259763 0,2.37847 0.572918,4.26346 1.71875,5.65235 1.163192,1.44097 3.386724,3.0115 6.667969,4.71289 l 4.947265,2.578118 c 3.472217,1.80555 5.207032,4.071194 5.207032,6.796884 0,1.97916 -0.685116,3.64583 -2.056641,5 -1.371526,1.37152 -3.158424,2.05664 -5.363281,2.05664 -2.152775,0 -4.853087,-0.78928 -8.09961,-2.36914 l -0.625,-6.09375 h -3.228515 v 9.32226 c 4.201382,1.70139 8.081603,2.55274 11.640625,2.55274 3.888882,0 7.00391,-1.06771 9.347656,-3.20313 2.326385,-2.13541 3.490234,-4.97396 3.490234,-8.51562 0,-2.30903 -0.530817,-4.105914 -1.589844,-5.390634 -1.041665,-1.26736 -3.25326,-2.811848 -6.638671,-4.634758 l -4.402344,-2.3711 c -2.187497,-1.18055 -3.705948,-2.13411 -4.556641,-2.86328 -0.97222,-0.83333 -1.458984,-2.12739 -1.458984,-3.88086 0,-4.27082 2.093323,-6.406248 6.277344,-6.406248 2.031246,0 4.130645,0.643018 6.300781,1.927738 l 0.650391,5.07812 h 3.203124 v -8.308592 c -3.333328,-1.26736 -6.586593,-1.900391 -9.763671,-1.900391 z M 30.75586,75.131836 v 3.203122 h 5.78125 v 32.134772 h -5.78125 v 3.20312 H 48.75 v -3.20312 H 41.666016 V 96.643556 h 7.761719 v 3.22851 h 3.203125 v -9.662108 h -3.203125 v 3.23047 h -7.761719 v -15.10547 h 12.578125 v 6.4336 h 3.203125 v -9.636722 z" />
  </g>
</svg>
